<svg xmlns="http://www.w3.org/2000/svg" width="450" height="450" viewBox="0 0 450 450" shape-rendering="crispEdges"><rect width="450" height="450" fill="#F5F4F1"/><path d="M80 80h10v10h-10zM90 80h10v10h-10zM100 80h10v10h-10zM110 80h10v10h-10zM120 80h10v10h-10zM130 80h10v10h-10zM140 80h10v10h-10zM170 80h10v10h-10zM260 80h10v10h-10zM270 80h10v10h-10zM280 80h10v10h-10zM300 80h10v10h-10zM310 80h10v10h-10zM320 80h10v10h-10zM330 80h10v10h-10zM340 80h10v10h-10zM350 80h10v10h-10zM360 80h10v10h-10zM80 90h10v10h-10zM140 90h10v10h-10zM160 90h10v10h-10zM170 90h10v10h-10zM180 90h10v10h-10zM200 90h10v10h-10zM210 90h10v10h-10zM230 90h10v10h-10zM250 90h10v10h-10zM260 90h10v10h-10zM270 90h10v10h-10zM280 90h10v10h-10zM300 90h10v10h-10zM360 90h10v10h-10zM80 100h10v10h-10zM100 100h10v10h-10zM110 100h10v10h-10zM120 100h10v10h-10zM140 100h10v10h-10zM170 100h10v10h-10zM180 100h10v10h-10zM190 100h10v10h-10zM250 100h10v10h-10zM280 100h10v10h-10zM300 100h10v10h-10zM320 100h10v10h-10zM330 100h10v10h-10zM340 100h10v10h-10zM360 100h10v10h-10zM80 110h10v10h-10zM100 110h10v10h-10zM110 110h10v10h-10zM120 110h10v10h-10zM140 110h10v10h-10zM180 110h10v10h-10zM240 110h10v10h-10zM280 110h10v10h-10zM300 110h10v10h-10zM320 110h10v10h-10zM330 110h10v10h-10zM340 110h10v10h-10zM360 110h10v10h-10zM80 120h10v10h-10zM100 120h10v10h-10zM110 120h10v10h-10zM120 120h10v10h-10zM140 120h10v10h-10zM170 120h10v10h-10zM210 120h10v10h-10zM230 120h10v10h-10zM240 120h10v10h-10zM250 120h10v10h-10zM260 120h10v10h-10zM300 120h10v10h-10zM320 120h10v10h-10zM330 120h10v10h-10zM340 120h10v10h-10zM360 120h10v10h-10zM80 130h10v10h-10zM140 130h10v10h-10zM160 130h10v10h-10zM190 130h10v10h-10zM220 130h10v10h-10zM230 130h10v10h-10zM240 130h10v10h-10zM250 130h10v10h-10zM270 130h10v10h-10zM280 130h10v10h-10zM300 130h10v10h-10zM360 130h10v10h-10zM80 140h10v10h-10zM90 140h10v10h-10zM100 140h10v10h-10zM110 140h10v10h-10zM120 140h10v10h-10zM130 140h10v10h-10zM140 140h10v10h-10zM160 140h10v10h-10zM180 140h10v10h-10zM200 140h10v10h-10zM220 140h10v10h-10zM240 140h10v10h-10zM260 140h10v10h-10zM280 140h10v10h-10zM300 140h10v10h-10zM310 140h10v10h-10zM320 140h10v10h-10zM330 140h10v10h-10zM340 140h10v10h-10zM350 140h10v10h-10zM360 140h10v10h-10zM160 150h10v10h-10zM180 150h10v10h-10zM210 150h10v10h-10zM220 150h10v10h-10zM120 160h10v10h-10zM130 160h10v10h-10zM140 160h10v10h-10zM150 160h10v10h-10zM200 160h10v10h-10zM210 160h10v10h-10zM270 160h10v10h-10zM300 160h10v10h-10zM310 160h10v10h-10zM350 160h10v10h-10zM80 170h10v10h-10zM90 170h10v10h-10zM120 170h10v10h-10zM150 170h10v10h-10zM160 170h10v10h-10zM290 170h10v10h-10zM300 170h10v10h-10zM310 170h10v10h-10zM320 170h10v10h-10zM340 170h10v10h-10zM350 170h10v10h-10zM360 170h10v10h-10zM90 180h10v10h-10zM100 180h10v10h-10zM110 180h10v10h-10zM120 180h10v10h-10zM130 180h10v10h-10zM140 180h10v10h-10zM170 180h10v10h-10zM290 180h10v10h-10zM320 180h10v10h-10zM330 180h10v10h-10zM360 180h10v10h-10zM90 190h10v10h-10zM100 190h10v10h-10zM120 190h10v10h-10zM270 190h10v10h-10zM290 190h10v10h-10zM320 190h10v10h-10zM330 190h10v10h-10zM350 190h10v10h-10zM360 190h10v10h-10zM90 200h10v10h-10zM100 200h10v10h-10zM110 200h10v10h-10zM120 200h10v10h-10zM130 200h10v10h-10zM140 200h10v10h-10zM150 200h10v10h-10zM170 200h10v10h-10zM270 200h10v10h-10zM310 200h10v10h-10zM330 200h10v10h-10zM360 200h10v10h-10zM90 210h10v10h-10zM100 210h10v10h-10zM120 210h10v10h-10zM300 210h10v10h-10zM320 210h10v10h-10zM340 210h10v10h-10zM360 210h10v10h-10zM80 220h10v10h-10zM110 220h10v10h-10zM120 220h10v10h-10zM140 220h10v10h-10zM170 220h10v10h-10zM290 220h10v10h-10zM300 220h10v10h-10zM320 220h10v10h-10zM360 220h10v10h-10zM80 230h10v10h-10zM90 230h10v10h-10zM100 230h10v10h-10zM120 230h10v10h-10zM150 230h10v10h-10zM270 230h10v10h-10zM310 230h10v10h-10zM330 230h10v10h-10zM350 230h10v10h-10zM80 240h10v10h-10zM120 240h10v10h-10zM140 240h10v10h-10zM270 240h10v10h-10zM290 240h10v10h-10zM80 250h10v10h-10zM100 250h10v10h-10zM290 250h10v10h-10zM300 250h10v10h-10zM320 250h10v10h-10zM330 250h10v10h-10zM360 250h10v10h-10zM100 260h10v10h-10zM110 260h10v10h-10zM120 260h10v10h-10zM140 260h10v10h-10zM170 260h10v10h-10zM280 260h10v10h-10zM310 260h10v10h-10zM320 260h10v10h-10zM360 260h10v10h-10zM110 270h10v10h-10zM160 270h10v10h-10zM310 270h10v10h-10zM330 270h10v10h-10zM80 280h10v10h-10zM90 280h10v10h-10zM100 280h10v10h-10zM120 280h10v10h-10zM140 280h10v10h-10zM150 280h10v10h-10zM160 280h10v10h-10zM180 280h10v10h-10zM200 280h10v10h-10zM240 280h10v10h-10zM250 280h10v10h-10zM260 280h10v10h-10zM270 280h10v10h-10zM280 280h10v10h-10zM290 280h10v10h-10zM300 280h10v10h-10zM310 280h10v10h-10zM320 280h10v10h-10zM330 280h10v10h-10zM350 280h10v10h-10zM160 290h10v10h-10zM170 290h10v10h-10zM190 290h10v10h-10zM200 290h10v10h-10zM210 290h10v10h-10zM220 290h10v10h-10zM240 290h10v10h-10zM260 290h10v10h-10zM270 290h10v10h-10zM280 290h10v10h-10zM320 290h10v10h-10zM340 290h10v10h-10zM350 290h10v10h-10zM360 290h10v10h-10zM80 300h10v10h-10zM90 300h10v10h-10zM100 300h10v10h-10zM110 300h10v10h-10zM120 300h10v10h-10zM130 300h10v10h-10zM140 300h10v10h-10zM160 300h10v10h-10zM200 300h10v10h-10zM210 300h10v10h-10zM220 300h10v10h-10zM230 300h10v10h-10zM270 300h10v10h-10zM280 300h10v10h-10zM300 300h10v10h-10zM320 300h10v10h-10zM360 300h10v10h-10zM80 310h10v10h-10zM140 310h10v10h-10zM160 310h10v10h-10zM180 310h10v10h-10zM200 310h10v10h-10zM210 310h10v10h-10zM230 310h10v10h-10zM240 310h10v10h-10zM250 310h10v10h-10zM270 310h10v10h-10zM280 310h10v10h-10zM320 310h10v10h-10zM330 310h10v10h-10zM350 310h10v10h-10zM80 320h10v10h-10zM100 320h10v10h-10zM110 320h10v10h-10zM120 320h10v10h-10zM140 320h10v10h-10zM160 320h10v10h-10zM170 320h10v10h-10zM180 320h10v10h-10zM210 320h10v10h-10zM220 320h10v10h-10zM230 320h10v10h-10zM240 320h10v10h-10zM250 320h10v10h-10zM260 320h10v10h-10zM270 320h10v10h-10zM280 320h10v10h-10zM290 320h10v10h-10zM300 320h10v10h-10zM310 320h10v10h-10zM320 320h10v10h-10zM350 320h10v10h-10zM360 320h10v10h-10zM80 330h10v10h-10zM100 330h10v10h-10zM110 330h10v10h-10zM120 330h10v10h-10zM140 330h10v10h-10zM170 330h10v10h-10zM180 330h10v10h-10zM230 330h10v10h-10zM250 330h10v10h-10zM310 330h10v10h-10zM330 330h10v10h-10zM340 330h10v10h-10zM350 330h10v10h-10zM80 340h10v10h-10zM100 340h10v10h-10zM110 340h10v10h-10zM120 340h10v10h-10zM140 340h10v10h-10zM170 340h10v10h-10zM190 340h10v10h-10zM230 340h10v10h-10zM240 340h10v10h-10zM270 340h10v10h-10zM280 340h10v10h-10zM290 340h10v10h-10zM330 340h10v10h-10zM350 340h10v10h-10zM360 340h10v10h-10zM80 350h10v10h-10zM140 350h10v10h-10zM180 350h10v10h-10zM230 350h10v10h-10zM240 350h10v10h-10zM250 350h10v10h-10zM280 350h10v10h-10zM300 350h10v10h-10zM310 350h10v10h-10zM330 350h10v10h-10zM350 350h10v10h-10zM360 350h10v10h-10zM80 360h10v10h-10zM90 360h10v10h-10zM100 360h10v10h-10zM110 360h10v10h-10zM120 360h10v10h-10zM130 360h10v10h-10zM140 360h10v10h-10zM170 360h10v10h-10zM180 360h10v10h-10zM210 360h10v10h-10zM250 360h10v10h-10zM280 360h10v10h-10zM320 360h10v10h-10zM330 360h10v10h-10zM350 360h10v10h-10z" fill="#20242D"/><rect x="182.5" y="177.0" width="85.1" height="96.0" rx="13.0" fill="#F5F4F1"/><svg x="190.5" y="185.0" width="69.1" height="80.0" viewBox="0 0 581 673" shape-rendering="geometricPrecision"><path d="M0.088,378.557c0.004,-43.565 -0.627,-49.725 1.432,-52.305c0.954,-1.195 0.889,-3.402 32.874,-2.632c13.945,0.336 6.975,9.122 8.628,172.644c0.844,83.508 105.747,90.794 118.541,14.119c0.187,-4.538 0.261,-4.427 0.125,-8.903c-0.962,-7.333 -1.211,-20.567 -15.191,-36.575c-29.243,-33.485 -68.508,-10.463 -78.469,-24.982c-0.477,-2.193 -1.826,-8.405 -0.617,-28.05c3.928,-11.241 13.539,-8.534 40.69,-8.038l8.854,0.855c23.258,4.201 35.149,8.832 56.021,26.754c2.311,2.357 4.622,4.713 6.932,7.07c2.079,2.662 15.654,20.044 20.485,36.915c0.925,3.23 6.085,21.252 3.66,41.831c-13.534,114.864 -191.594,123.404 -203.435,-10.442c-0.735,-37.774 0.105,-55.285 -0.523,-100.159c0.027,-4.683 0.054,-9.367 0.081,-14.05c0.008,-7.057 -0.035,-6.892 -0.088,-14.052Z" style="fill:#20242d;"/><path d="M236.37,672.68c-0.949,-0.084 -8.916,-0.788 -10.239,-6.08c-1.113,-4.451 -0.747,-140.549 -0.714,-152.771c0.215,-79.798 60.572,-112.646 105.844,-110.798c95.313,3.891 129.19,119.283 64.88,177.425c-38.781,35.062 -97.047,23.45 -98.153,22.805c-8.159,-4.758 -4.145,-31.885 -3.621,-33.212c5.929,-15.016 48.587,4.139 74.769,-23.627c42.841,-45.434 -0.174,-113.708 -55.38,-99.097c-54.762,14.493 -45.697,75.946 -45.625,89.342c0.324,60.726 0.052,60.587 0.207,121.222c0.047,18.209 -12.09,14.664 -31.968,14.79Z" style="fill:#20242d;"/><path d="M557.9,403.916c2.524,0.05 22.368,-3.269 22.479,9.79c0.143,16.861 2.835,33.011 -10.195,32.873c-13.162,-0.139 -65.854,-5.489 -74.526,49.602c-2.091,23.487 1.235,92.877 -1.082,103.707c-1.216,2.055 -2.165,5.317 -10.468,5.49c-26.163,0.545 -26.233,-0.883 -29.534,-3.884c-0.905,-3.639 -1.063,-3.666 -1.122,-66.579c-0.023,-5.269 -0.046,-10.538 -0.07,-15.807c-0.284,-25.586 -0.118,-25.392 0.07,-49.197c-0.037,-15.94 -0.05,-15.765 -0.153,-31.623l0.012,-5.272c-0.016,-2.932 -0.032,-5.864 -0.049,-8.797c-0.02,-1.355 -0.215,-14.853 1.7,-16.853c0.327,-0.342 34.755,-10.024 40.064,7.971c0.221,0.749 0.216,11.481 9.706,6.316c17.189,-9.354 16.119,-12.425 42.572,-17.169l10.596,-0.569Z" style="fill:#20242d;"/><path d="M327.84,203.993c-16.531,25.833 -54.501,20.057 -64.123,-11.332c-1.326,-4.327 -1.174,-4.408 -1.174,-106.065c-0,-57.103 -0.421,-57.392 2.85,-65.219c10.849,-25.961 49.058,-31.137 64.676,0.56c3.937,7.991 3.411,8.384 3.411,56.497c-0,110.093 0.113,110.138 -0.879,114.185c-1.669,6.812 -4.208,10.557 -4.761,11.374Z" style="fill:#20242d;"/><path d="M215.885,188.583c-4.473,31.578 -40.744,43.469 -62.245,17.79c-10.159,-12.134 -8.375,-25.253 -8.375,-36.525c-0,-71.009 -0.261,-71.187 1.902,-77.434c9.71,-28.048 48.289,-34.803 65.264,-2.693c4.208,7.96 3.642,8.395 3.642,61.354c0,31.328 0.018,31.283 -0.188,37.508Z" style="fill:#20242d;"/><path d="M379.879,139.649c0.161,-3.757 -0.31,-25.806 24.939,-34.975c7.251,-2.633 22.289,-3.185 34.201,8.893c13.694,13.884 11.784,23.967 11.784,43.221c0,32.153 1.51,39.842 -9.377,52.165c-14.281,16.165 -44.414,16.74 -58.127,-10.419c-2.656,-5.261 -3.263,-12.087 -3.359,-13.171c-0.079,-31.797 0.076,-35.767 -0.062,-45.715Z" style="fill:#20242d;"/></svg></svg>